<?xml version="1.0" standalone="no"?>
<!DOCTYPE svg PUBLIC "-//W3C//DTD SVG 1.1//EN" "http://www.w3.org/Graphics/SVG/1.1/DTD/svg11.dtd" >
<svg xmlns="http://www.w3.org/2000/svg" xmlns:xlink="http://www.w3.org/1999/xlink" version="1.1">
<metadata></metadata>
<defs>
<font id="visby_cflight_oblique" horiz-adv-x="1234" >
<font-face units-per-em="2048" ascent="1638" descent="-410" />
<missing-glyph horiz-adv-x="634" />
<glyph unicode="&#xfb01;" horiz-adv-x="1044" d="M61 0l121 973h-104l12 92h103l8 61q10 77 39.5 135.5t68.5 93t91 56.5t100 29.5t102 7.5q114 0 198.5 -38.5t164.5 -117.5l-58 -63q-66 65 -138 96t-171 31q-55 0 -101 -11t-88.5 -36t-71 -72.5t-36.5 -114.5l-6 -57h326l-13 -92h-325l-119 -973h-103zM750 0l131 1065 h102l-131 -1065h-102z" />
<glyph unicode="&#xfb02;" horiz-adv-x="1099" d="M61 0l119 973h-102l12 92h103l6 53q10 76 39.5 135t70.5 95.5t94.5 59.5t105.5 31.5t109 8.5q178 0 318 -98l10 84h105l-177 -1434h-104l154 1249q-60 54 -133 80.5t-177 26.5q-283 0 -313 -242l-6 -49h326l-13 -92h-323l-121 -973h-103z" />
<glyph horiz-adv-x="0" />
<glyph horiz-adv-x="682" />
<glyph unicode=" "  horiz-adv-x="634" />
<glyph unicode="&#x09;" horiz-adv-x="634" />
<glyph unicode="&#xa0;" horiz-adv-x="634" />
<glyph unicode="!" horiz-adv-x="393" d="M45 0l16 131h127l-16 -131h-127zM98 369l131 1065h111l-131 -1065h-111z" />
<glyph unicode="&#x22;" horiz-adv-x="512" d="M47 1075h103l45 359h-103zM272 1075h103l45 359h-103z" />
<glyph unicode="#" horiz-adv-x="1126" d="M49 369l12 92h179l98 512h-215l12 92h221l72 369h102l-71 -369h332l71 369h103l-72 -369h184l-12 -92h-191l-98 -512h228l-13 -92h-233l-72 -369h-102l71 369h-331l-72 -369h-102l71 369h-172zM342 461h332l100 512h-332z" />
<glyph unicode="$" horiz-adv-x="1142" d="M45 326l92 22q15 -107 101 -179.5t204 -86.5l78 633l-45 16q-149 56 -225 143t-60 224q17 138 138 236t282 112l21 172h92l-21 -172q150 -11 250.5 -96.5t134.5 -208.5l-96 -23q-20 92 -99 159t-202 77l-69 -578l45 -16q68 -26 116.5 -49t98 -58.5t78.5 -75.5t43 -96.5 t6 -124.5q-8 -79 -53 -147.5t-113 -115t-151 -74.5t-169 -33l-20 -170h-92l20 174q-147 18 -255.5 109t-129.5 227zM287 1090q-10 -101 46 -163t169 -106l30 -10l66 543q-124 -14 -211 -85.5t-100 -178.5zM535 80q144 10 253 86.5t123 198.5q8 65 -8.5 114t-59 83t-79 53 t-96.5 42l-60 23z" />
<glyph unicode="%" horiz-adv-x="1429" d="M127 53l1098 1383l71 -54l-1095 -1382zM131 1196q12 103 94.5 175.5t184.5 72.5q106 0 172 -74.5t53 -181.5q-12 -102 -95 -175t-186 -73q-106 0 -171.5 75t-51.5 181zM215 1188q-7 -68 34.5 -115t108.5 -47q71 0 127.5 49.5t65.5 120.5q7 70 -35 116t-110 46 q-70 0 -126 -49t-65 -121zM795 246q12 103 94 175.5t184 72.5q106 0 172 -74.5t53 -181.5q-12 -102 -94.5 -175t-185.5 -73q-106 0 -171.5 75t-51.5 181zM879 238q-7 -68 34.5 -115t108.5 -47q71 0 127 49t65 121q7 70 -35 116t-110 46q-70 0 -125.5 -48.5t-64.5 -121.5z " />
<glyph unicode="&#x26;" horiz-adv-x="1454" d="M104 416q22 179 144 292t315 136l-305 590h909l-12 -93h-745l309 -579q-43 4 -101 4q-155 0 -273.5 -99t-139.5 -259q-20 -157 77.5 -246.5t262.5 -89.5q91 0 173.5 34t142 89.5t98 126.5t47.5 145l30 250l13 92h264l-13 -92h-161l-66 -527q-7 -64 10 -87t60 -23 q75 0 145 49l-8 -96q-64 -45 -141 -45q-171 0 -150 186l10 78q-72 -131 -193 -201.5t-263 -70.5q-208 0 -335.5 120t-103.5 316z" />
<glyph unicode="'" horiz-adv-x="286" d="M135 1075h103l45 359h-103z" />
<glyph unicode="(" horiz-adv-x="473" d="M86 659q60 507 322 869l94 -4q-256 -383 -316 -873q-64 -524 93 -919l-89 4q-171 394 -104 923z" />
<glyph unicode=")" horiz-adv-x="473" d="M-31 -264q257 397 324 923q59 497 -98 869l86 -4q174 -364 112 -873q-66 -534 -327 -919z" />
<glyph unicode="*" horiz-adv-x="905" d="M211 1176l33 86l225 -72l-29 -78zM264 911l174 201l58 -53l-160 -199zM469 1190l25 244h92l-35 -244h-82zM496 1059l65 53l129 -201l-80 -51zM551 1190l246 72l12 -86l-246 -64z" />
<glyph unicode="+" horiz-adv-x="870" d="M70 537l10 81h303l37 302h82l-37 -302h301l-10 -81h-301l-37 -304h-82l37 304h-303z" />
<glyph unicode="," horiz-adv-x="376" d="M94 -276h86l199 317h-141z" />
<glyph unicode="-" horiz-adv-x="819" d="M70 537l10 81h635l-10 -81h-635z" />
<glyph unicode="." horiz-adv-x="319" d="M8 0l17 131h127l-17 -131h-127z" />
<glyph unicode="/" horiz-adv-x="980" d="M-29 -266l916 1792h100l-915 -1792h-101z" />
<glyph unicode="0" horiz-adv-x="1298" d="M90 692l6 53q20 161 77.5 294t142 222t192.5 138t227 49q121 0 218 -49.5t160.5 -139.5t89 -223.5t5.5 -294.5l-6 -53q-39 -324 -217 -513t-422 -189q-121 0 -218 49t-160.5 138.5t-89 223t-5.5 295.5zM190 688q-35 -283 70.5 -446.5t306.5 -163.5q203 0 351 165t184 449 l6 53q35 282 -71 446.5t-306 164.5q-203 0 -351 -166t-183 -449z" />
<glyph unicode="1" horiz-adv-x="573" d="M199 1341l12 93h287l-176 -1434h-103l164 1341h-184z" />
<glyph unicode="2" horiz-adv-x="1071" d="M25 0l4 37l430 448q54 56 123.5 124.5t107 105.5t81 85t65.5 81.5t39 74.5t22 84q18 139 -67 227.5t-222 88.5q-138 0 -247.5 -94t-129.5 -248l-4 -31h-102l4 35q23 185 162.5 307.5t320.5 122.5q118 0 212.5 -55.5t141.5 -151.5t33 -209q-5 -41 -17.5 -78.5t-38.5 -78.5 t-48.5 -72.5t-69 -82t-78 -82.5t-97 -97.5t-105.5 -106.5l-336 -342h694l-12 -92h-866z" />
<glyph unicode="3" horiz-adv-x="1136" d="M55 414l103 -2q-19 -143 74 -241.5t247 -98.5q163 0 285 96t143 266q15 117 -40.5 197.5t-157.5 113.5t-234 21l443 575l-707 -2l12 95h881l-463 -590q81 -5 152 -35t124 -82t78.5 -130t14.5 -171q-26 -202 -178.5 -324t-354.5 -122q-205 0 -325 126t-97 308z" />
<glyph unicode="4" horiz-adv-x="1101" d="M49 442l4 35l871 957h41l-111 -899h154l-11 -93h-153l-56 -442h-102l55 442h-692zM221 535h531l84 679z" />
<glyph unicode="5" horiz-adv-x="1155" d="M47 274l92 45q23 -102 116.5 -174.5t227.5 -72.5q165 0 295.5 114.5t153.5 290.5q21 169 -74.5 282t-245.5 113q-214 0 -379 -165l-92 22l176 705h695l-13 -93h-606l-131 -503q144 127 354 127q91 0 173 -36.5t140.5 -100t87 -157.5t15.5 -202q-26 -211 -186 -350 t-365 -139q-163 0 -280 84.5t-154 209.5z" />
<glyph unicode="6" horiz-adv-x="1083" d="M57 432q7 59 28 117.5t42 100t68 104.5t73.5 94.5t94.5 108.5t96 110l323 367h117l-512 -586q96 29 172 29q118 0 214.5 -60.5t146 -165.5t34.5 -227q-23 -185 -170.5 -314.5t-326.5 -129.5q-120 0 -217.5 59.5t-147.5 164t-35 228.5zM158 424q-18 -150 74.5 -251 t226.5 -101q136 0 255.5 103.5t139.5 256.5q19 155 -72 251.5t-227 96.5q-160 0 -267.5 -96t-129.5 -260z" />
<glyph unicode="7" horiz-adv-x="991" d="M127 1341l12 93h869l-729 -1434h-107l684 1341h-729z" />
<glyph unicode="8" horiz-adv-x="1073" d="M55 414q17 134 97 234t198 147q-77 47 -115 129t-28 176q18 143 134.5 245.5t281.5 102.5q168 0 261 -105t74 -251q-10 -93 -68.5 -173t-148.5 -126q107 -51 162.5 -152t38.5 -235q-15 -123 -89.5 -220.5t-180.5 -148.5t-221 -51q-87 0 -164.5 31t-133 85.5t-83 136 t-15.5 175.5zM156 406q-18 -145 71 -236.5t228 -91.5q142 0 255.5 93.5t131.5 242.5q18 145 -67.5 237t-229.5 92q-147 0 -259 -94.5t-130 -242.5zM307 1092q-12 -107 57 -182.5t183 -75.5q117 0 207 78t104 188q13 102 -51.5 179t-188.5 77q-127 0 -212.5 -79.5 t-98.5 -184.5z" />
<glyph unicode="9" horiz-adv-x="1083" d="M127 1008q15 122 89.5 225t184 161t226.5 58q89 0 168.5 -35.5t134 -95.5t81 -144.5t15.5 -177.5q-6 -51 -20 -97.5t-39 -94t-46.5 -83.5t-63.5 -88t-68 -83t-81 -93t-83 -95l-324 -367h-117l512 586q-96 -29 -172 -29q-119 0 -215.5 60.5t-146.5 165.5t-35 227zM229 999 q-19 -155 72 -251.5t227 -96.5q160 0 268 96.5t128 260.5q10 75 -11 142t-63.5 112t-101.5 71.5t-123 26.5q-136 0 -256 -104t-140 -257z" />
<glyph unicode=":" horiz-adv-x="339" d="M-70 0l17 131h127l-17 -131h-127zM45 930l16 131h127l-16 -131h-127z" />
<glyph unicode=";" horiz-adv-x="440" d="M-14 -276h86l198 317h-141zM125 930l16 131h127l-16 -131h-127z" />
<glyph unicode="&#x3c;" horiz-adv-x="1017" d="M61 469l797 -469l12 104l-669 388l766 391l12 102l-911 -469z" />
<glyph unicode="=" horiz-adv-x="870" d="M72 373l10 82h686l-10 -82h-686zM113 700l10 82h686l-10 -82h-686z" />
<glyph unicode="&#x3e;" horiz-adv-x="1017" d="M-16 0l911 469l6 47l-797 469l-12 -102l668 -391l-764 -388z" />
<glyph unicode="?" horiz-adv-x="1034" d="M127 1004l102 4q22 173 122.5 260.5t236.5 87.5q145 0 228 -83t65 -231q-7 -56 -41.5 -109t-80.5 -92t-100 -85.5t-100.5 -90t-81.5 -106t-43 -131.5l-8 -59h104l9 63q7 54 33 102.5t63.5 86.5t81 75t87.5 74.5t81.5 77.5t64 92t33.5 111q14 117 -30 208t-134.5 140 t-210.5 49q-185 0 -320 -120t-161 -324zM377 0l16 131h127l-16 -131h-127z" />
<glyph unicode="@" horiz-adv-x="1626" d="M102 715q19 158 97.5 297.5t190 233.5t245 148t264.5 54q136 0 258.5 -54.5t210.5 -150t131 -236t23 -300.5q-22 -184 -110 -283.5t-195 -99.5q-100 0 -147.5 56t-35.5 161q-52 -115 -134 -168.5t-169 -53.5q-61 0 -117 25t-100 72t-65 125t-9 174q11 90 50 162.5 t93.5 116.5t114.5 67.5t119 23.5q86 0 153.5 -46t86.5 -130l18 156h88l-55 -447q-13 -110 14.5 -158t98.5 -48q74 0 129.5 75t74.5 228q17 141 -19 262.5t-111 203t-179 127.5t-221 46q-89 0 -181.5 -29.5t-178 -86.5t-155.5 -134t-118.5 -180t-62.5 -217 q-13 -109 10 -208.5t73.5 -174.5t121.5 -131t155 -84.5t172 -28.5q209 0 375 119l92 -47q-212 -166 -471 -166q-132 0 -254 54.5t-211 148.5t-134 232.5t-26 293.5zM532 707q-9 -74 6.5 -133t47 -93.5t70 -52.5t79.5 -18q97 0 183 82t104 223q16 132 -48 206t-159 74 q-42 0 -87 -18t-86 -51.5t-71 -90.5t-39 -128z" />
<glyph unicode="A" horiz-adv-x="1400" d="M-20 0l798 1434h33l446 -1434h-108l-141 473h-660l-260 -473h-108zM399 565h582l-207 684z" />
<glyph unicode="B" horiz-adv-x="1216" d="M55 0l176 1434h416q217 0 323 -98q90 -83 90 -212q0 -23 -3 -47q-30 -230 -264 -297q149 -42 215 -140q51 -77 51 -176q0 -27 -4 -56q-25 -201 -173.5 -304.5t-406.5 -103.5h-315l12 92h311q215 0 332.5 78.5t138.5 245.5q3 23 3 44q0 116 -84 188q-99 85 -308 85h-315 l12 92h311q348 0 381 260q2 19 2 36q0 95 -64 153q-76 68 -253 67h-315l-164 -1341h-105z" />
<glyph unicode="C" horiz-adv-x="1349" d="M68 721q19 156 97.5 294t189.5 231.5t244.5 147.5t264.5 54q257 0 434 -180l-71 -70q-65 74 -161.5 113t-205.5 39q-88 0 -180 -30t-175.5 -87t-152.5 -133.5t-116 -177t-60 -209.5q-5 -40 -5 -79q1 -92 27 -176q38 -120 112.5 -200t175.5 -127t210 -47q111 0 217 40.5 t191 115.5l61 -78q-103 -85 -225 -130.5t-248 -45.5q-106 0 -206 34t-182 100t-141 154t-85 204q-16 73 -16 151q0 45 6 92z" />
<glyph unicode="D" horiz-adv-x="1353" d="M66 0l176 1434h376q205 0 356.5 -96.5t221.5 -261.5q52 -123 51 -266q0 -49 -6 -101q-18 -146 -86.5 -276.5t-172 -226t-243 -151t-293.5 -55.5h-276l12 92h273q137 0 257.5 48t208.5 132t145 199t73 246q6 51 6 98q1 120 -39 221q-56 141 -184.5 223t-311.5 82h-276 l-164 -1341h-104z" />
<glyph unicode="E" horiz-adv-x="1165" d="M55 0l176 1434h879l-12 -95h-772l-70 -571h567l-12 -94h-567l-82 -674h-107zM162 0l12 94h793l-13 -94h-792z" />
<glyph unicode="F" horiz-adv-x="1083" d="M35 0l176 1434h879l-13 -95h-772l-72 -587l3 14h628l-12 -94h-629l-82 -672h-106z" />
<glyph unicode="G" horiz-adv-x="1544" d="M82 721q19 156 97.5 294t189.5 231.5t245 147.5t265 54q162 0 288 -55t195 -146l-72 -63q-57 77 -164.5 123.5t-251.5 46.5q-111 0 -226.5 -47.5t-212.5 -130t-166 -204.5t-85 -259q-5 -42 -5 -82q0 -91 27 -175q38 -120 114 -201t178.5 -128t212.5 -47 q215 0 385.5 144.5t228.5 381.5h-385l12 94h389v2l50 -2h10l39 -2q-19 -158 -86 -292t-165 -225.5t-223 -143t-259 -51.5q-132 0 -254 54.5t-211 149t-134 234.5q-32 98 -32 205q0 45 6 92z" />
<glyph unicode="H" horiz-adv-x="1347" d="M66 0l176 1434h104l-92 -744l8 55h832l84 689h104l-176 -1434h-105l84 690l-4 -37h-831l-80 -653h-104z" />
<glyph unicode="I" horiz-adv-x="411" d="M66 0l176 1434h104l-176 -1434h-104z" />
<glyph unicode="J" horiz-adv-x="1064" d="M23 156l75 67q98 -145 301 -145q78 0 143 24.5t120.5 78t93 146t53.5 220.5l109 887h102l-111 -893q-14 -120 -48.5 -215t-81.5 -158t-109 -104.5t-130 -59.5t-145 -18q-242 0 -372 170z" />
<glyph unicode="K" horiz-adv-x="1398" d="M66 0l176 1434h106l-112 -912l311 289l674 623h135l-752 -691l615 -743h-136l-553 674l-311 -285l-47 -389h-106z" />
<glyph unicode="L" horiz-adv-x="1124" d="M72 0l176 1434h104l-176 -1434h-104zM176 0l12 92h773l-13 -92h-772z" />
<glyph unicode="M" horiz-adv-x="1830" d="M66 0l176 1434h26l580 -1258l893 1258h24l-176 -1434h-106l137 1116l-789 -1116h-8l-514 1116l-137 -1116h-106z" />
<glyph unicode="N" horiz-adv-x="1447" d="M66 0l176 1434h18l870 -1186l146 1186h106l-176 -1434h-18l-871 1182l-145 -1182h-106z" />
<glyph unicode="O" horiz-adv-x="1587" d="M78 721q19 156 97.5 294t189.5 231.5t244.5 147.5t264.5 54q136 0 258.5 -54.5t210.5 -149.5q87 -95 131 -234q30 -97 31 -203q0 -46 -6 -94q-19 -156 -96 -294t-187.5 -231.5t-244.5 -147.5t-269 -54q-106 0 -206 34t-182 100t-141 154t-85 204q-16 73 -16 151 q0 45 6 92zM186 713q-5 -42 -6 -83q0 -90 26 -172q38 -120 113 -200.5t176.5 -127t211.5 -46.5q118 0 234 47t210 129t159 202.5t81 258.5q6 45 6 88q0 88 -24 168q-35 119 -107.5 200t-175.5 127t-220 46q-111 0 -225.5 -47t-210.5 -128.5t-164 -203t-84 -258.5z" />
<glyph unicode="P" horiz-adv-x="1216" d="M51 0l176 1434h428q237 0 363 -120q106 -101 105 -258q0 -29 -3 -59q-26 -206 -176.5 -321t-390.5 -115h-328l6 60l-75 -621h-105zM236 653h327q199 0 316 90.5t139 262.5q3 27 3 52q-1 120 -79 194q-96 89 -291 89h-332z" />
<glyph unicode="Q" horiz-adv-x="1646" d="M-10 721q19 156 97.5 294t189.5 231.5t244.5 147.5t264.5 54q136 0 258.5 -54.5t210.5 -149.5t131 -234q31 -97 31 -203q0 -46 -6 -94q-18 -145 -83.5 -271t-166.5 -223l187 -219h-123l-135 158q-104 -83 -227.5 -127.5t-248.5 -44.5q-106 0 -206 34t-182 100t-141 154.5 t-85 203.5q-16 73 -16 151q0 45 6 92zM98 713q-5 -42 -5 -83q0 -90 25 -172q38 -120 112.5 -200.5t176 -127t211.5 -46.5q221 0 410 147l-248 289h123l195 -227q176 181 205 428q6 45 6 88q0 88 -24 168q-35 119 -107.5 200t-175.5 127t-220 46q-111 0 -225.5 -47 t-210.5 -128.5t-164 -203t-84 -258.5z" />
<glyph unicode="R" horiz-adv-x="1249" d="M51 0l176 1434h428q237 0 363 -120q106 -101 105 -258q0 -29 -3 -59q-22 -166 -124 -274t-269 -143l410 -580h-131l-383 563q-23 -2 -70 -2h-328l6 60l-75 -621h-105zM236 653h327q199 0 316 90.5t139 262.5q3 27 3 52q-1 120 -79 194q-96 89 -291 89h-332z" />
<glyph unicode="S" horiz-adv-x="1183" d="M45 326l96 22q17 -119 125 -194.5t248 -75.5q162 0 288.5 78t143.5 209q2 18 2 35q0 32 -8 60q-13 44 -34 72t-61.5 53.5t-71.5 39.5t-81 32l-200 74q-74 27 -129 59t-97 76t-60 102q-12 39 -12 84q0 22 3 46q19 149 160.5 249.5t322.5 100.5q175 0 292.5 -87.5 t155.5 -219.5l-98 -23q-24 100 -117 169t-237 69q-149 0 -256.5 -73.5t-122.5 -192.5q-2 -16 -2 -31q0 -80 49 -132q58 -62 176 -106l170 -61q70 -26 121 -49t102.5 -58.5t81.5 -75.5q30 -41 45 -97q10 -37 9 -78q0 -22 -2 -46q-13 -109 -95.5 -195.5t-199 -130.5 t-242.5 -44q-113 0 -212.5 41.5t-168 120t-84.5 178.5z" />
<glyph unicode="T" horiz-adv-x="1226" d="M174 1337l12 97h1000l-12 -97h-447l-164 -1337h-106l164 1337h-447z" />
<glyph unicode="U" horiz-adv-x="1357" d="M123 545l108 889h103l-109 -891q-6 -49 -6 -93q0 -156 77 -250q99 -122 300 -122q204 0 336 123.5t160 345.5l108 887h103l-111 -893q-30 -257 -195 -406t-405 -149q-242 0 -372 150q-104 121 -103 311q0 47 6 98z" />
<glyph unicode="V" horiz-adv-x="1421" d="M139 1434h111l393 -1246l705 1246h110l-819 -1434h-33z" />
<glyph unicode="W" horiz-adv-x="2099" d="M170 1434h109l241 -1180l602 1180h31l307 -1180l537 1180h108l-655 -1434h-20l-316 1210l-620 -1210h-21z" />
<glyph unicode="X" horiz-adv-x="1425" d="M35 0l622 741l-411 693h116l363 -611l514 611h117l-582 -693l440 -741h-116l-391 659l-555 -659h-117z" />
<glyph unicode="Y" horiz-adv-x="1312" d="M154 1434h114l383 -648l547 648h115l-619 -732l-86 -702h-102l86 702z" />
<glyph unicode="Z" horiz-adv-x="1241" d="M-16 0l1067 1341h-850l12 93h1036l-1067 -1342h912l-13 -92h-1097z" />
<glyph unicode="[" horiz-adv-x="471" d="M-29 -266l219 1792h287l-10 -92h-184l-197 -1608h184l-12 -92h-287z" />
<glyph unicode="\" horiz-adv-x="980" d="M190 1526h101l477 -1792h-100z" />
<glyph unicode="]" horiz-adv-x="471" d="M-29 -266l13 92h184l197 1608h-185l10 92h287l-219 -1792h-287z" />
<glyph unicode="^" horiz-adv-x="960" d="M123 973l399 461h92l285 -461h-100l-240 356l-336 -356h-100z" />
<glyph unicode="_" horiz-adv-x="1208" d="M-6 -92l10 92h1024l-10 -92h-1024z" />
<glyph unicode="`" horiz-adv-x="305" d="M104 1571l181 -297h88l-121 297h-148z" />
<glyph unicode="a" d="M57 537q16 130 76 236t143 170.5t174.5 99t178.5 34.5q131 0 235.5 -64.5t147.5 -185.5l28 238h103l-131 -1065h-103l29 236q-72 -123 -189.5 -186.5t-246.5 -63.5q-89 0 -173.5 35t-152 101t-101.5 174q-23 74 -23 159q0 40 5 82zM160 528q-5 -38 -5 -73q0 -68 18 -127 q27 -89 81.5 -142t121 -80.5t136.5 -27.5q56 0 115.5 18t118 55.5t106.5 90.5t82 129.5t45 165.5q5 38 5 74q0 47 -9 91q-15 76 -49.5 127.5t-83 87t-102 52t-109.5 16.5q-57 0 -116.5 -17t-118.5 -54.5t-107.5 -90t-83 -129t-45.5 -166.5z" />
<glyph unicode="b" horiz-adv-x="1214" d="M35 0l176 1434h104l-73 -598q72 119 189.5 180t244.5 61q70 0 138.5 -21.5t129.5 -66.5t105 -109q44 -62 64 -154q12 -55 12 -117q0 -40 -5 -81q-13 -106 -55 -196.5t-100.5 -152.5t-129.5 -106.5t-143.5 -65.5t-142.5 -21q-131 0 -236 65t-147 189l-29 -240h-102z M199 528q-4 -36 -4 -70q-1 -70 17 -128q26 -88 79.5 -141.5t119.5 -82t136 -28.5q57 0 116 17.5t118 54.5t107.5 89.5t83.5 130t46 167.5q5 38 5 73q0 68 -18 126q-27 88 -81.5 141t-121 80.5t-136.5 27.5q-57 0 -115.5 -17t-117 -53.5t-106.5 -89t-82.5 -129.5t-45.5 -168z " />
<glyph unicode="c" horiz-adv-x="1116" d="M68 537q16 130 76.5 236t144 170.5t175 99t177.5 34.5q130 0 240.5 -67t162.5 -191l-96 -28q-41 95 -126 144.5t-185 49.5q-70 0 -144 -28.5t-142.5 -82.5t-118 -144.5t-62.5 -201.5q-5 -37 -5 -72q-1 -49 9 -93q16 -76 51 -127.5t83.5 -88t102 -53t107.5 -16.5 q102 0 201 51t164 147l92 -36q-80 -123 -206 -188.5t-255 -65.5q-70 0 -138 21.5t-130 67t-106 109.5q-44 62 -64 154q-13 56 -13 118q0 39 5 81z" />
<glyph unicode="d" horiz-adv-x="1245" d="M49 537q16 130 76 236t143 170.5t174.5 99t178.5 34.5q129 0 232.5 -63t147.5 -183l74 603h105l-176 -1434h-103l29 236q-72 -123 -189.5 -186.5t-246.5 -63.5q-89 0 -173.5 35t-152 101t-101.5 174q-23 74 -23 159q0 40 5 82zM152 528q-5 -38 -5 -73q0 -68 18 -127 q27 -89 81.5 -142t121 -80.5t136.5 -27.5q56 0 115.5 18t118 55.5t106.5 90.5t82 129.5t45 165.5q5 38 5 74q0 47 -9 91q-15 76 -49.5 127.5t-83 87t-102 52t-109.5 16.5q-57 0 -116.5 -17t-118.5 -54.5t-107.5 -90t-83 -129t-45.5 -166.5z" />
<glyph unicode="e" horiz-adv-x="1216" d="M78 537q16 130 76.5 236t143.5 170.5t175 99t180 34.5q71 0 139.5 -21.5t130 -66.5t105.5 -109q43 -62 63 -154q12 -55 12 -117q0 -40 -5 -81q-2 -14 -11 -41h-911q-1 -17 -1 -34q1 -62 15 -116q18 -69 53 -116t82.5 -80t99.5 -48t105 -15q202 0 344 145l78 -57 q-85 -89 -196.5 -134.5t-229.5 -45.5q-89 0 -174 35t-153 101q-69 66 -103 174q-24 74 -23 160q0 39 5 81zM188 578l813 4q2 21 2 42q0 74 -23 136q-29 80 -82.5 127.5t-117.5 72.5t-131 25q-68 0 -139.5 -25.5t-137 -74t-115.5 -128.5t-69 -179z" />
<glyph unicode="f" horiz-adv-x="737" d="M61 0l119 973h-102l12 92h103l8 68q40 315 338 315q80 0 146.5 -29.5t102.5 -70.5l-57 -74q-21 32 -74.5 57t-121.5 25q-97 0 -157.5 -51t-74.5 -177l-8 -63h326l-13 -92h-323l-121 -973h-103z" />
<glyph unicode="g" horiz-adv-x="1224" d="M57 537q16 130 76 236t143 170.5t174.5 99t178.5 34.5q131 0 235.5 -64.5t147.5 -185.5l28 238h103l-131 -1067q-11 -92 -49 -165.5t-89 -119.5t-115 -77t-124 -43.5t-119 -12.5q-121 0 -199.5 28.5t-111.5 65.5l6 90q34 -36 111.5 -64t195.5 -28q69 0 132.5 20 t118.5 58.5t92.5 103.5t47.5 148l29 234q-72 -123 -189.5 -186.5t-246.5 -63.5q-89 0 -173.5 35t-152 101t-101.5 174q-23 74 -23 159q0 40 5 82zM160 528q-5 -38 -5 -73q0 -68 18 -127q27 -89 81.5 -142t121 -80.5t136.5 -27.5q56 0 115.5 18t118 55.5t106.5 90.5t82 129.5 t45 165.5q5 38 5 74q0 48 -9 91q-15 76 -49.5 127.5t-83 87t-102 52t-109.5 16.5q-57 0 -116.5 -17t-118.5 -54.5t-107.5 -90t-83 -129t-45.5 -166.5z" />
<glyph unicode="h" horiz-adv-x="1183" d="M49 0l176 1434h103l-78 -641q9 36 42 81.5t85 92t131.5 77.5t167.5 31q65 0 123 -16t108.5 -51t84.5 -87t48 -129q8 -41 7 -88q0 -40 -5 -83l-75 -621h-103l78 627q4 37 4 71q0 126 -62 196q-79 89 -222 89q-148 0 -271.5 -109t-161.5 -243l-77 -631h-103z" />
<glyph unicode="i" horiz-adv-x="403" d="M61 0l132 1065h104l-131 -1065h-105zM225 1331l13 103h104l-12 -103h-105z" />
<glyph unicode="j" horiz-adv-x="514" d="M-184 -365l8 91q78 -50 170 -50q63 0 103 50t50 143l148 1196h102l-147 -1200q-19 -154 -85 -219.5t-173 -65.5q-49 0 -97 16t-79 39zM328 1331l12 103h102l-12 -103h-102z" />
<glyph unicode="k" horiz-adv-x="1132" d="M61 0l25 207l16 131l136 1096h102l-121 -988l199 185l469 434h133l-543 -500l512 -565h-131l-455 498l-200 -185l-39 -313h-103z" />
<glyph unicode="l" horiz-adv-x="403" d="M61 0l177 1434h104l-176 -1434h-105z" />
<glyph unicode="m" horiz-adv-x="1851" d="M51 0l131 1065h103l-33 -274q10 43 39 89.5t75 91.5t117 74t152 29q55 0 107 -15t101.5 -46t85 -87.5t48.5 -131.5q19 51 56 99.5t88.5 89.5t121 66t143.5 25q54 0 105 -13t99 -45.5t81 -80.5q33 -50 48 -126q8 -42 9 -90q0 -39 -6 -81l-77 -639h-103l80 653q5 37 5 70 q0 45 -9 81q-15 64 -51.5 102t-84.5 55.5t-108 17.5q-137 0 -241.5 -91.5t-153.5 -221.5l-2 -27l-78 -639h-102l80 653q4 34 4 66q1 47 -9 85q-16 66 -55 102.5t-87.5 54.5t-106.5 18q-75 0 -142 -30.5t-115 -81t-82 -110.5t-53 -126l-77 -631h-103z" />
<glyph unicode="n" horiz-adv-x="1173" d="M51 0l131 1065h103l-131 -1065h-103zM231 631l21 162q9 36 42 81.5t85 92t131.5 77.5t167.5 31q65 0 123 -16t108.5 -51t84.5 -87t48 -129q8 -41 7 -88q0 -40 -5 -83l-75 -621h-103l78 627q4 37 4 71q0 126 -62 196q-79 89 -222 89q-148 0 -271.5 -109t-161.5 -243z" />
<glyph unicode="o" horiz-adv-x="1210" d="M68 537q16 130 76.5 236t143.5 170.5t175 99t180 34.5q71 0 140 -21.5t131 -66.5t106 -109q44 -62 64 -154q13 -56 13 -118q0 -39 -5 -80q-13 -106 -55.5 -196.5t-101.5 -152.5t-131 -106.5t-145 -65.5t-143 -21q-89 0 -174 35t-153 101q-69 66 -103 174q-24 74 -23 160 q0 39 5 81zM170 528q-5 -37 -4 -72q0 -49 8 -93q16 -76 50.5 -127.5t83.5 -88t103 -53t109 -16.5q72 0 146 28.5t142 82.5t117.5 145t63.5 203q5 38 5 73q0 68 -18 126q-26 88 -80 141t-120.5 80.5t-136.5 27.5q-72 0 -146.5 -28.5t-142.5 -82.5t-117.5 -144.5t-62.5 -201.5 z" />
<glyph unicode="p" horiz-adv-x="1261" d="M35 -389l178 1454h102l-28 -234q72 121 190 183.5t246 62.5q70 0 138.5 -21.5t129.5 -66.5t105 -108.5t64 -154.5q12 -56 12 -117q0 -39 -5 -81q-13 -106 -55 -196.5t-100.5 -152.5t-129.5 -106.5t-143.5 -65.5t-142.5 -21q-131 0 -236 65t-147 189l-76 -629h-102z M246 528q-4 -36 -4 -70q0 -68 18 -128q26 -88 79 -141.5t119 -82t136 -28.5q57 0 116 17.5t118 54.5t107.5 89.5t83.5 130t46 167.5q5 38 5 73q0 67 -18 126q-27 88 -81.5 141t-121 80.5t-136.5 27.5q-57 0 -115.5 -17t-117 -53.5t-106.5 -89t-82.5 -129.5t-45.5 -168z" />
<glyph unicode="q" d="M57 537q16 130 76 236t143 170.5t174.5 99t178.5 34.5q131 0 235.5 -64.5t147.5 -185.5l28 238h103l-178 -1454h-103l76 625q-72 -123 -189.5 -186.5t-246.5 -63.5q-89 0 -173.5 35t-152 101t-101.5 174q-23 74 -23 159q0 40 5 82zM160 528q-5 -38 -5 -73q0 -68 18 -127 q27 -89 81.5 -142t121 -80.5t136.5 -27.5q56 0 115.5 18t118 55.5t106.5 90.5t82 129.5t45 165.5q5 38 5 74q0 48 -9 91q-15 76 -49.5 127.5t-83 87t-102 52t-109.5 16.5q-57 0 -116.5 -17t-118.5 -54.5t-107.5 -90t-83 -129t-45.5 -166.5z" />
<glyph unicode="r" horiz-adv-x="794" d="M61 0l132 1065h104l-131 -1065h-105zM238 575l20 173q35 132 156 229.5t284 97.5q26 0 76 -4l-6 -92q-25 2 -74 2q-160 -2 -282 -107.5t-174 -298.5z" />
<glyph unicode="s" horiz-adv-x="958" d="M31 262l94 23q12 -94 89.5 -150.5t191.5 -56.5q123 0 216 54t103 142q2 16 2 31q1 63 -37 101q-46 46 -141 69l-182 45q-244 61 -244 248q0 17 2 35q14 111 128 192.5t269 81.5q138 0 227.5 -66.5t127.5 -183.5l-97 -22q-58 180 -262 180q-121 0 -201.5 -55t-89.5 -135 q-2 -13 -2 -25q0 -59 36 -97q43 -46 145 -69l141 -33q151 -35 223 -107q59 -60 59 -156q0 -20 -2 -42q-15 -121 -141.5 -200.5t-284.5 -79.5q-150 0 -253.5 75.5t-116.5 200.5z" />
<glyph unicode="t" horiz-adv-x="645" d="M92 973l12 92h144l22 184h103l-23 -184h223l-12 -92h-223l-98 -801q-2 -15 -1 -27q0 -33 11 -47q16 -20 59 -20q56 0 148 39l-8 -94q-72 -35 -173 -35q-72 0 -112 38q-32 30 -31 94q0 17 2 36l101 817h-144z" />
<glyph unicode="u" horiz-adv-x="1148" d="M68 434l77 631h107l-78 -637q-5 -44 -6 -83q0 -119 52 -183q68 -84 208 -84q74 0 145 31t126 82t97 113.5t66 129.5l-20 -160q-10 -29 -32.5 -64.5t-61.5 -75.5t-86.5 -72.5t-113.5 -54t-136 -21.5q-81 0 -147.5 25t-116.5 77q-50 51 -72 140q-13 54 -14 118q0 42 6 88z M809 0l131 1065h107l-132 -1065h-106z" />
<glyph unicode="v" horiz-adv-x="1064" d="M102 1065h107l256 -862l473 862h106l-591 -1065h-21z" />
<glyph unicode="w" horiz-adv-x="1787" d="M102 1065h103l233 -858l488 858h18l275 -858l446 858h102l-559 -1065h-18l-279 883l-493 -883h-19z" />
<glyph unicode="x" horiz-adv-x="1079" d="M-6 0l467 541l-324 524h115l276 -447l385 447h115l-453 -524l334 -541h-112l-289 465l-402 -465h-112z" />
<glyph unicode="y" horiz-adv-x="1112" d="M113 1065h104l283 -909l479 909h104l-768 -1454h-102l223 424z" />
<glyph unicode="z" horiz-adv-x="1077" d="M-16 0l845 973h-706l12 92h893l-846 -973h727l-12 -92h-913z" />
<glyph unicode="{" horiz-adv-x="522" d="M82 -111l74 592l-74 146l111 149l71 598q9 67 55 109.5t111 42.5h98l-10 -92h-69q-32 0 -55.5 -21t-26.5 -53l-74 -594l-98 -139l63 -135l-72 -596q-4 -32 13 -51t49 -19h74l-13 -92h-94q-65 0 -102.5 44t-30.5 111z" />
<glyph unicode="|" horiz-adv-x="399" d="M18 -389l248 2027h92l-247 -2027h-93z" />
<glyph unicode="}" horiz-adv-x="522" d="M-29 -266l13 92h69q32 0 54.5 21t27.5 53l72 592l100 135l-65 139l73 598q3 33 -13 51.5t-48 18.5h-74l10 92h95q65 0 103.5 -44.5t29.5 -111.5l-72 -594l74 -149l-111 -146l-73 -596q-7 -67 -54 -109t-112 -42h-99z" />
<glyph unicode="~" horiz-adv-x="946" d="M92 514q0 89 60.5 137.5t144.5 48.5q61 0 113.5 -21.5t83.5 -47t73 -47t84 -21.5q73 0 107.5 29t34.5 67h61q0 -90 -56.5 -136t-146.5 -46q-60 0 -110.5 23t-81 50t-75 50t-93.5 23q-75 0 -108 -35t-31 -74h-60z" />
<glyph unicode="&#xa1;" horiz-adv-x="319" d="M8 -369l131 1065h111l-131 -1065h-111zM160 934l16 131h127l-16 -131h-127z" />
<glyph unicode="&#xa2;" horiz-adv-x="1126" d="M68 680q12 94 49 176.5t88.5 141.5t116 103.5t130.5 69.5t132 33l28 230h93l-29 -228q121 -8 220.5 -72.5t147.5 -177.5l-96 -28q-38 87 -114 134.5t-168 53.5l-109 -885q93 9 180 58.5t146 134.5l92 -35q-73 -115 -189.5 -178.5t-240.5 -71.5l-27 -221h-92l29 225 q-82 11 -155.5 50.5t-132 104t-86.5 164t-13 218.5zM170 672q-13 -98 8 -179t66 -133.5t101.5 -84.5t119.5 -42l108 879q-66 -11 -130.5 -43.5t-122 -85t-98 -133.5t-52.5 -178z" />
<glyph unicode="&#xa3;" horiz-adv-x="1128" d="M10 -4v29q161 152 223.5 255.5t75.5 217.5q5 54 -8 116h-164l10 86h129q-3 9 -15 43.5t-16.5 48.5t-13.5 45.5t-12 52.5t-7 51t-3.5 59.5t4.5 60.5q20 169 157.5 278t317.5 109q186 0 297.5 -118.5t87.5 -311.5l-4 -35h-102l4 39q11 83 -8.5 148.5t-61 105t-97 60 t-120.5 20.5q-141 0 -248 -81t-125 -222q-2 -30 -2.5 -50.5t4 -50.5t8.5 -50.5t12 -50.5t14 -50l15 -50t15 -51h319l-10 -86h-289q17 -82 9 -149q-25 -198 -213 -379l745 2l-10 -92h-918z" />
<glyph unicode="&#xa4;" horiz-adv-x="1150" d="M113 602l96 96q-92 126 -92 277q0 152 92 278l-96 97l88 86l96 -97q126 95 278 95q153 0 279 -95l96 97l88 -86l-96 -97q92 -126 92 -278q0 -151 -92 -277l96 -96l-88 -86l-94 94q-124 -94 -281 -94q-156 0 -280 94l-94 -94zM215 975q0 -147 106.5 -254t253.5 -107 t255 107t108 254q0 146 -108 253t-255 107q-146 0 -253 -107t-107 -253z" />
<glyph unicode="&#xa5;" horiz-adv-x="1323" d="M154 1434h114l383 -648l547 648h115l-619 -732l-10 -84h246l-10 -81h-246l-17 -138h246l-10 -82h-246l-39 -317h-102l39 317h-201l10 82h201l16 138h-200l10 81h201l10 84z" />
<glyph unicode="&#xa6;" horiz-adv-x="399" d="M18 -389l70 573h92l-69 -573h-93zM197 1065l69 573h92l-69 -573h-92z" />
<glyph unicode="&#xa7;" horiz-adv-x="1144" d="M6 -59l92 22q28 -123 120.5 -196.5t227.5 -73.5q97 0 187 31.5t156 97.5t77 153q7 65 -10.5 117.5t-55.5 88.5t-79 59.5t-94 42.5l-191 65q-94 33 -157 77t-98 118t-23 170q15 129 121 227q-83 93 -66 234q20 150 155 250t308 100q166 0 279 -88t149 -219l-94 -23 q-22 100 -110.5 169t-225.5 69q-143 0 -245.5 -73t-117.5 -194q-13 -106 41.5 -168t169.5 -100l158 -53q82 -27 143.5 -61.5t111.5 -83.5t71.5 -118t11.5 -153q-14 -119 -117 -219q76 -100 60 -242q-14 -109 -96.5 -194.5t-194.5 -128.5t-228 -43q-167 0 -283.5 92.5 t-152.5 247.5zM254 705q-13 -106 41.5 -168.5t169.5 -100.5l158 -53q132 -45 211 -109q77 73 88 162q8 65 -9 117.5t-55.5 88.5t-79.5 59t-94 42l-190 66q-81 27 -144 70q-85 -75 -96 -174z" />
<glyph unicode="&#xa8;" horiz-adv-x="589" d="M72 1307l16 127h127l-16 -127h-127zM535 1307l16 127h127l-16 -127h-127z" />
<glyph unicode="&#xa9;" horiz-adv-x="1650" d="M113 721q19 156 97.5 294t190 231.5t245.5 147.5t265 54q136 0 259 -54.5t211.5 -149.5t132 -234t24.5 -297q-19 -156 -96.5 -294t-188 -231.5t-245 -147.5t-269.5 -54q-132 0 -254 54.5t-211.5 149t-134.5 234t-26 297.5zM215 713q-17 -136 21.5 -256t115 -200 t179 -126.5t212.5 -46.5q119 0 236 47t212.5 129t162 202.5t82.5 258.5q17 137 -19 256t-110.5 200t-178.5 127t-221 46q-111 0 -227 -47t-213.5 -128.5t-166.5 -203t-85 -258.5zM397 721q12 95 61 180.5t118 143.5t152.5 92t164.5 34q83 0 158 -33.5t129 -90.5l-70 -70 q-80 102 -219 102q-84 0 -169 -46t-148 -132t-76 -188q-19 -152 74 -256.5t221 -104.5q136 0 249 107l58 -74q-64 -58 -145.5 -90.5t-163.5 -32.5q-83 0 -159.5 34.5t-133 94t-85 146.5t-16.5 184z" />
<glyph unicode="&#xaa;" horiz-adv-x="817" d="M135 991q21 164 264 187l211 20q7 82 -30 123t-113 41q-144 0 -215 -100l-57 67q44 54 116 84.5t158 30.5q135 0 187.5 -73t33.5 -230l-22 -197q-6 -74 -2 -95.5t24 -57.5l-92 4q-30 48 -18 100q-41 -46 -101.5 -76.5t-124.5 -30.5q-110 0 -170.5 52t-48.5 151zM223 983 q-6 -55 28.5 -84t104.5 -29q75 0 140.5 46.5t89.5 87.5l16 116q-27 -6 -203 -24q-74 -7 -122 -34.5t-54 -78.5z" />
<glyph unicode="&#xab;" horiz-adv-x="743" d="M41 549l20 166l324 223l-10 -88l-260 -217l207 -219l-11 -88zM344 549l21 166l323 223l-10 -88l-260 -217l207 -219l-11 -88z" />
<glyph unicode="&#xac;" horiz-adv-x="972" d="M70 537l10 81h686l-10 -81h-686zM727 303l39 315h102l-39 -315h-102z" />
<glyph unicode="&#xad;" horiz-adv-x="819" d="M-18 537l10 81h635l-11 -81h-634z" />
<glyph unicode="&#xae;" horiz-adv-x="1650" d="M113 721q19 156 97.5 294t190 231.5t245.5 147.5t265 54q136 0 259 -54.5t211.5 -149.5t132 -234t24.5 -297q-19 -156 -96.5 -294t-188 -231.5t-245 -147.5t-269.5 -54q-132 0 -254 54.5t-211.5 149t-134.5 234t-26 297.5zM215 713q-17 -136 21.5 -256t115 -200 t179 -126.5t212.5 -46.5q119 0 236 47t212.5 129t162 202.5t82.5 258.5q17 137 -19 256t-110.5 200t-178.5 127t-221 46q-111 0 -227 -47t-213.5 -128.5t-166.5 -203t-85 -258.5zM502 322l100 806h275q133 0 206.5 -73t59.5 -183q-12 -97 -78.5 -160.5t-173.5 -82.5 l227 -307h-112l-211 303h-168l-37 -303h-88zM637 707h188q208 0 228 174q9 79 -37 122.5t-144 43.5h-192z" />
<glyph unicode="&#xaf;" horiz-adv-x="741" d="M76 1341l12 93h741l-12 -93h-741z" />
<glyph unicode="&#xb0;" horiz-adv-x="782" d="M150 1180q14 122 110 207.5t219 85.5q126 0 203.5 -88.5t62.5 -213.5q-15 -124 -111.5 -210.5t-219.5 -86.5q-126 0 -202.5 89t-61.5 217zM233 1171q-10 -90 43.5 -150t141.5 -60q91 0 161.5 63t82.5 156q10 90 -43.5 149.5t-141.5 59.5q-91 0 -161.5 -62.5t-82.5 -155.5 z" />
<glyph unicode="&#xb1;" horiz-adv-x="870" d="M70 2l10 82h686l-10 -82h-686zM70 537l10 81h303l37 302h82l-37 -302h301l-10 -81h-301l-37 -304h-82l37 304h-303z" />
<glyph unicode="&#xb2;" horiz-adv-x="534" d="M-55 901l8 66l156 143q94 88 110 108q29 36 33 74q4 36 -19 61t-59 25q-40 0 -74 -27.5t-41 -76.5l-2 -27h-75l4 31q9 72 63 118t123 46q71 0 118.5 -48t39.5 -110q-7 -52 -41 -94.5t-123 -124.5l-111 -98h242l-8 -66h-344z" />
<glyph unicode="&#xb3;" horiz-adv-x="559" d="M-39 1081l78 -4q-6 -50 17 -84.5t71 -34.5q47 0 85 29t44 74q6 54 -29.5 74t-109.5 20l4 59q66 0 101 25t40 66q4 30 -17 50.5t-57 20.5q-46 0 -77 -30t-37 -84l-76 4q7 77 60.5 125.5t127.5 48.5q67 0 112.5 -43.5t39.5 -100.5q-10 -65 -76 -106q35 -15 55.5 -50.5 t14.5 -86.5q-7 -68 -67.5 -114t-135.5 -46q-84 0 -132 56.5t-36 131.5z" />
<glyph unicode="&#xb4;" horiz-adv-x="305" d="M68 1274h88l254 297h-148z" />
<glyph unicode="&#xb6;" horiz-adv-x="1456" d="M168 997q23 197 178.5 317t392.5 120h324l-12 -93h-332q-196 0 -312 -89t-137 -246q-22 -172 74 -262.5t295 -90.5h328l-4 -32l100 813h104l-176 -1434h-104l69 561h-327q-241 0 -364 115t-97 321zM1122 0l176 1434h103l-176 -1434h-103z" />
<glyph unicode="&#xb7;" horiz-adv-x="319" d="M-16 510l16 131h127l-16 -131h-127z" />
<glyph unicode="&#xb8;" horiz-adv-x="325" d="M-113 -428l23 49q85 -16 140 23t63 100q6 59 -34.5 85t-107.5 -7l-26 49l108 131h109l-103 -96q68 -2 111.5 -49.5t34.5 -120.5q-7 -61 -54 -106t-115.5 -59.5t-148.5 1.5z" />
<glyph unicode="&#xb9;" horiz-adv-x="423" d="M31 1395l75 41h76l-65 -535h-76l55 453l-35 -23z" />
<glyph unicode="&#xba;" horiz-adv-x="831" d="M162 1120q10 76 45.5 139t84.5 102.5t103.5 61t106.5 21.5q53 0 104 -22t91 -62.5t60.5 -105.5t10.5 -142q-10 -76 -45.5 -139.5t-84.5 -103t-103.5 -61.5t-106.5 -22q-53 0 -104 22.5t-91 63.5t-60.5 106t-10.5 142zM252 1112q-14 -114 41 -179t137 -65q85 0 159.5 67.5 t88.5 184.5q14 114 -41 178t-137 64q-86 0 -160 -66.5t-88 -183.5z" />
<glyph unicode="&#xbb;" horiz-adv-x="743" d="M55 326l11 88l260 219l-207 217l10 88l270 -223l-20 -166zM358 326l11 88l260 219l-207 217l10 88l270 -223l-20 -166z" />
<glyph unicode="&#xbc;" horiz-adv-x="1165" d="M-125 0l1069 1434h86l-1057 -1434h-98zM-35 1395l76 41h76l-66 -535h-76l56 453l-35 -23zM555 156l317 379h76l-39 -316h56l-9 -63h-55l-18 -156h-76l18 156h-270zM700 219h134l24 195z" />
<glyph unicode="&#xbd;" horiz-adv-x="1114" d="M-125 0l1069 1434h86l-1057 -1434h-98zM-35 1395l76 41h76l-66 -535h-76l56 453l-35 -23zM543 0l8 66l156 143q94 88 110 108q29 36 33 74q4 36 -19 61t-59 25q-40 0 -74 -27.5t-41 -76.5l-2 -27h-75l4 31q9 72 63 118t123 46q71 0 118.5 -48t39.5 -110q-7 -52 -41 -94.5 t-123 -124.5l-111 -98h242l-8 -66h-344z" />
<glyph unicode="&#xbe;" horiz-adv-x="1202" d="M-80 1081l78 -4q-6 -50 17 -84.5t71 -34.5q47 0 85 29t44 74q6 54 -29.5 74t-109.5 20l4 59q66 0 101 25t40 66q4 30 -17 50.5t-57 20.5q-46 0 -77 -30t-37 -84l-76 4q7 77 60.5 125.5t127.5 48.5q67 0 112.5 -43.5t39.5 -100.5q-10 -65 -76 -106q35 -15 55.5 -50.5 t14.5 -86.5q-7 -68 -67.5 -114t-135.5 -46q-84 0 -132 56.5t-36 131.5zM-68 0l1069 1434h86l-1056 -1434h-99zM592 156l317 379h76l-39 -316h55l-8 -63h-55l-18 -156h-76l18 156h-270zM737 219h133l25 195z" />
<glyph unicode="&#xbf;" horiz-adv-x="1034" d="M6 14q-14 -117 30 -208t134.5 -140t210.5 -49q185 0 320 120t161 324l-104 -4q-21 -173 -121 -260.5t-236 -87.5q-145 0 -227.5 83t-64.5 231q6 49 32 94t63.5 82t81.5 73.5t88 75t81.5 80t64.5 95.5t35 114l8 59h-104l-8 -63q-7 -54 -33 -102.5t-63.5 -86.5t-81.5 -75 t-88 -74.5t-81.5 -77.5t-64 -92t-33.5 -111zM469 934l16 131h127l-16 -131h-127z" />
<glyph unicode="&#xc0;" horiz-adv-x="1400" d="M-20 0l798 1434h33l446 -1434h-108l-141 473h-660l-260 -473h-108zM399 565h582l-207 684zM557 1939h148l120 -297h-88z" />
<glyph unicode="&#xc1;" horiz-adv-x="1400" d="M-20 0l798 1434h33l446 -1434h-108l-141 473h-660l-260 -473h-108zM399 565h582l-207 684zM733 1642l195 297h147l-254 -297h-88z" />
<glyph unicode="&#xc2;" horiz-adv-x="1400" d="M-20 0l798 1434h33l446 -1434h-108l-141 473h-660l-260 -473h-108zM399 565h582l-207 684zM469 1642l260 297h166l186 -297h-88l-188 234l-248 -234h-88z" />
<glyph unicode="&#xc3;" horiz-adv-x="1400" d="M-20 0l798 1434h33l446 -1434h-108l-141 473h-660l-260 -473h-108zM399 565h582l-207 684zM440 1659q11 87 72.5 135.5t130.5 48.5q45 0 83 -14t63 -34.5t47.5 -40.5t48.5 -34t55 -14q61 0 97.5 30.5t39.5 67.5l62 -4q-11 -88 -69 -134t-132 -46q-44 0 -80 15t-60 36 t-46.5 42.5t-51.5 36.5t-63 15q-62 0 -97.5 -36t-39.5 -74z" />
<glyph unicode="&#xc4;" horiz-adv-x="1400" d="M-20 0l798 1434h33l446 -1434h-108l-141 473h-660l-260 -473h-108zM399 565h582l-207 684zM485 1675l17 127h127l-17 -127h-127zM948 1675l17 127h127l-17 -127h-127z" />
<glyph unicode="&#xc5;" horiz-adv-x="1400" d="M-20 0l798 1434h33l446 -1434h-108l-141 473h-660l-260 -473h-108zM399 565h582l-207 684zM633 1806q8 65 61 111.5t121 46.5q67 0 110.5 -49t35.5 -117q-7 -64 -60.5 -111t-118.5 -47q-71 0 -114 49t-35 117zM711 1802q-4 -36 17.5 -61t55.5 -25q36 0 65 26t34 60 q4 36 -18 61t-56 25q-36 0 -64.5 -26t-33.5 -60z" />
<glyph unicode="&#xc6;" horiz-adv-x="1966" d="M-16 0l981 1434h946l-13 -95h-772l-69 -571h567l-12 -94h-568l-81 -674h-107l57 473h-487l-324 -473h-118zM487 565h437l96 781zM963 0l12 94h792l-12 -94h-792z" />
<glyph unicode="&#xc7;" horiz-adv-x="1349" d="M68 721q19 156 97.5 294t189.5 231.5t244.5 147.5t264.5 54q257 0 434 -180l-71 -70q-65 74 -161.5 113t-205.5 39q-88 0 -180 -30t-175.5 -87t-152.5 -133.5t-116 -177t-60 -209.5q-16 -135 21.5 -254.5t112.5 -200t176 -127.5t210 -47q111 0 217 40.5t191 115.5l61 -78 q-200 -164 -440 -176l-86 -80q68 -2 111 -49.5t34 -120.5q-7 -61 -54 -106t-115 -59.5t-148 1.5l22 49q85 -16 140 23t63 100q6 59 -34 85t-107 -7l-27 49l99 119q-123 14 -231.5 73.5t-187 153t-116.5 225t-20 279.5z" />
<glyph unicode="&#xc8;" horiz-adv-x="1165" d="M55 0l176 1434h879l-12 -95h-772l-70 -571h567l-12 -94h-567l-82 -674h-107zM162 0l12 94h793l-13 -94h-792zM451 1939h147l121 -297h-88z" />
<glyph unicode="&#xc9;" horiz-adv-x="1165" d="M55 0l176 1434h879l-12 -95h-772l-70 -571h567l-12 -94h-567l-82 -674h-107zM162 0l12 94h793l-13 -94h-792zM627 1642l194 297h148l-254 -297h-88z" />
<glyph unicode="&#xca;" horiz-adv-x="1165" d="M55 0l176 1434h879l-12 -95h-772l-70 -571h567l-12 -94h-567l-82 -674h-107zM162 0l12 94h793l-13 -94h-792zM362 1642l261 297h165l187 -297h-88l-189 234l-247 -234h-89z" />
<glyph unicode="&#xcb;" horiz-adv-x="1165" d="M55 0l176 1434h879l-12 -95h-772l-70 -571h567l-12 -94h-567l-82 -674h-107zM162 0l12 94h793l-13 -94h-792zM379 1675l16 127h127l-16 -127h-127zM842 1675l16 127h127l-16 -127h-127z" />
<glyph unicode="&#xcc;" horiz-adv-x="411" d="M57 1939l181 -297h88l-121 297h-148zM66 0l176 1434h104l-176 -1434h-104z" />
<glyph unicode="&#xcd;" horiz-adv-x="411" d="M66 0l176 1434h104l-176 -1434h-104zM233 1642h89l253 297h-147z" />
<glyph unicode="&#xce;" horiz-adv-x="411" d="M-31 1642l260 297h166l187 -297h-88l-189 234l-248 -234h-88zM66 0l176 1434h104l-176 -1434h-104z" />
<glyph unicode="&#xcf;" horiz-adv-x="411" d="M-14 1675l16 127h127l-16 -127h-127zM66 0l176 1434h104l-176 -1434h-104zM449 1675l16 127h127l-17 -127h-126z" />
<glyph unicode="&#xd0;" horiz-adv-x="1519" d="M131 676l10 82h166l84 676h377q205 0 356.5 -96.5t221 -261.5t45.5 -367q-18 -146 -86.5 -276.5t-172 -226t-243 -151t-293.5 -55.5h-277l13 92h272q137 0 257.5 48t208.5 132t145 199t73 246q22 178 -33.5 319t-184 223t-310.5 82h-277l-71 -583h364l-10 -82h-363 l-84 -676h-104l84 676h-168z" />
<glyph unicode="&#xd1;" horiz-adv-x="1447" d="M66 0l176 1434h18l870 -1186l146 1186h106l-176 -1434h-18l-871 1182l-145 -1182h-106zM459 1659q11 87 72.5 135.5t130.5 48.5q55 0 100 -21.5t70 -47t58 -47t68 -21.5q61 0 98 30.5t40 67.5l61 -4q-11 -88 -69 -134t-132 -46q-44 0 -80 15t-60 36t-46.5 42.5 t-51.5 36.5t-63 15q-62 0 -97.5 -36t-39.5 -74z" />
<glyph unicode="&#xd2;" horiz-adv-x="1587" d="M78 721q19 156 97.5 294t189.5 231.5t244.5 147.5t264.5 54q136 0 258.5 -54.5t210.5 -149.5t131.5 -234t24.5 -297q-19 -156 -96 -294t-187.5 -231.5t-244.5 -147.5t-269 -54q-106 0 -206 34t-182 100t-141 154.5t-84.5 204t-10.5 242.5zM186 713q-17 -136 20.5 -255.5 t112.5 -200t176.5 -127t211.5 -46.5q118 0 234 47t210 129t159 202.5t81 258.5q17 137 -18 256t-107.5 200t-175.5 127t-220 46q-111 0 -225.5 -47t-210.5 -128.5t-164 -203t-84 -258.5zM639 1939l180 -297h88l-121 297h-147z" />
<glyph unicode="&#xd3;" horiz-adv-x="1587" d="M78 721q19 156 97.5 294t189.5 231.5t244.5 147.5t264.5 54q136 0 258.5 -54.5t210.5 -149.5t131.5 -234t24.5 -297q-19 -156 -96 -294t-187.5 -231.5t-244.5 -147.5t-269 -54q-106 0 -206 34t-182 100t-141 154.5t-84.5 204t-10.5 242.5zM186 713q-17 -136 20.5 -255.5 t112.5 -200t176.5 -127t211.5 -46.5q118 0 234 47t210 129t159 202.5t81 258.5q17 137 -18 256t-107.5 200t-175.5 127t-220 46q-111 0 -225.5 -47t-210.5 -128.5t-164 -203t-84 -258.5zM815 1642h88l254 297h-147z" />
<glyph unicode="&#xd4;" horiz-adv-x="1587" d="M78 721q19 156 97.5 294t189.5 231.5t244.5 147.5t264.5 54q136 0 258.5 -54.5t210.5 -149.5t131.5 -234t24.5 -297q-19 -156 -96 -294t-187.5 -231.5t-244.5 -147.5t-269 -54q-106 0 -206 34t-182 100t-141 154.5t-84.5 204t-10.5 242.5zM186 713q-17 -136 20.5 -255.5 t112.5 -200t176.5 -127t211.5 -46.5q118 0 234 47t210 129t159 202.5t81 258.5q17 137 -18 256t-107.5 200t-175.5 127t-220 46q-111 0 -225.5 -47t-210.5 -128.5t-164 -203t-84 -258.5zM551 1642l260 297h166l186 -297h-88l-188 234l-248 -234h-88z" />
<glyph unicode="&#xd5;" horiz-adv-x="1587" d="M78 721q19 156 97.5 294t189.5 231.5t244.5 147.5t264.5 54q136 0 258.5 -54.5t210.5 -149.5t131.5 -234t24.5 -297q-19 -156 -96 -294t-187.5 -231.5t-244.5 -147.5t-269 -54q-106 0 -206 34t-182 100t-141 154.5t-84.5 204t-10.5 242.5zM186 713q-17 -136 20.5 -255.5 t112.5 -200t176.5 -127t211.5 -46.5q118 0 234 47t210 129t159 202.5t81 258.5q17 137 -18 256t-107.5 200t-175.5 127t-220 46q-111 0 -225.5 -47t-210.5 -128.5t-164 -203t-84 -258.5zM522 1659q11 87 72.5 135.5t130.5 48.5q45 0 83 -14t63 -34.5t47.5 -40.5t48.5 -34 t55 -14q61 0 97.5 30.5t39.5 67.5l62 -4q-11 -88 -69 -134t-132 -46q-44 0 -80 15t-60 36t-46.5 42.5t-51.5 36.5t-63 15q-62 0 -97.5 -36t-39.5 -74z" />
<glyph unicode="&#xd6;" horiz-adv-x="1587" d="M78 721q19 156 97.5 294t189.5 231.5t244.5 147.5t264.5 54q136 0 258.5 -54.5t210.5 -149.5t131.5 -234t24.5 -297q-19 -156 -96 -294t-187.5 -231.5t-244.5 -147.5t-269 -54q-106 0 -206 34t-182 100t-141 154.5t-84.5 204t-10.5 242.5zM186 713q-17 -136 20.5 -255.5 t112.5 -200t176.5 -127t211.5 -46.5q118 0 234 47t210 129t159 202.5t81 258.5q17 137 -18 256t-107.5 200t-175.5 127t-220 46q-111 0 -225.5 -47t-210.5 -128.5t-164 -203t-84 -258.5zM567 1675l17 127h127l-17 -127h-127zM1030 1675l17 127h127l-17 -127h-127z" />
<glyph unicode="&#xd7;" horiz-adv-x="727" d="M49 362l242 216l-189 215l62 57l190 -215l238 213l51 -57l-240 -213l189 -213l-64 -58l-186 213l-242 -215z" />
<glyph unicode="&#xd8;" horiz-adv-x="1626" d="M78 721q19 156 97.5 294t189.5 231.5t244.5 147.5t264.5 54q100 0 195 -31l53 109h107l-70 -144q176 -88 271.5 -265t68.5 -404q-19 -156 -96 -294t-187.5 -231.5t-244.5 -147.5t-269 -54q-102 0 -196 30l-55 -118h-107l74 155q-175 89 -271.5 266t-68.5 402zM186 713 q-24 -192 55 -342t222 -226l565 1182q-80 23 -158 23q-111 0 -225.5 -47t-210.5 -128.5t-164 -203t-84 -258.5zM551 109q77 -25 156 -25q118 0 234 47t210 129t159 202.5t81 258.5q24 195 -53 345.5t-222 225.5z" />
<glyph unicode="&#xd9;" horiz-adv-x="1357" d="M123 545l108 889h103l-109 -891q-28 -222 71 -343.5t300 -121.5q204 0 336 123.5t160 345.5l108 887h103l-111 -893q-30 -257 -195 -406t-405 -149q-242 0 -371.5 150.5t-97.5 408.5zM530 1939l181 -297h88l-121 297h-148z" />
<glyph unicode="&#xda;" horiz-adv-x="1357" d="M123 545l108 889h103l-109 -891q-28 -222 71 -343.5t300 -121.5q204 0 336 123.5t160 345.5l108 887h103l-111 -893q-30 -257 -195 -406t-405 -149q-242 0 -371.5 150.5t-97.5 408.5zM707 1642h88l254 297h-148z" />
<glyph unicode="&#xdb;" horiz-adv-x="1357" d="M123 545l108 889h103l-109 -891q-28 -222 71 -343.5t300 -121.5q204 0 336 123.5t160 345.5l108 887h103l-111 -893q-30 -257 -195 -406t-405 -149q-242 0 -371.5 150.5t-97.5 408.5zM442 1642l260 297h166l187 -297h-88l-189 234l-248 -234h-88z" />
<glyph unicode="&#xdc;" horiz-adv-x="1357" d="M123 545l108 889h103l-109 -891q-28 -222 71 -343.5t300 -121.5q204 0 336 123.5t160 345.5l108 887h103l-111 -893q-30 -257 -195 -406t-405 -149q-242 0 -371.5 150.5t-97.5 408.5zM459 1675l16 127h127l-16 -127h-127zM922 1675l16 127h127l-16 -127h-127z" />
<glyph unicode="&#xdd;" horiz-adv-x="1312" d="M154 1434h114l383 -648l547 648h115l-619 -732l-86 -702h-102l86 702zM672 1642h88l254 297h-148z" />
<glyph unicode="&#xde;" horiz-adv-x="1273" d="M66 0l176 1434h102l-35 -277h367q237 0 363.5 -121.5t101.5 -318.5q-26 -206 -176.5 -319t-391.5 -113h-370l-35 -285h-102zM205 299l10 78h371q200 0 316 88t136 260q21 158 -74 249t-290 91h-375l2 20z" />
<glyph unicode="&#xdf;" horiz-adv-x="1284" d="M66 0l131 1065q21 169 148 269t343 100q210 0 323 -94t93 -253q-28 -240 -260 -301q149 -36 213.5 -133.5t46.5 -236.5q-51 -416 -598 -416h-174l12 92h178q221 0 339 78.5t140 245.5q19 154 -83 237.5t-318 83.5h-178l12 92h178q180 0 276 59t113 199q15 122 -70 188 t-255 66q-174 0 -268 -71t-109 -205l-131 -1065h-102z" />
<glyph unicode="&#xe0;" d="M57 537q16 130 76 236t143 170.5t174.5 99t178.5 34.5q131 0 235.5 -64.5t147.5 -185.5l28 238h103l-131 -1065h-103l29 236q-72 -123 -189.5 -186.5t-246.5 -63.5q-89 0 -173.5 35t-152 101t-101.5 174.5t-18 240.5zM160 528q-14 -111 13 -200t81.5 -142t121 -80.5 t136.5 -27.5q56 0 115.5 18t118 55.5t106.5 90.5t82 129.5t45 165.5q11 90 -4 165.5t-49.5 127t-83 87t-102 52t-109.5 16.5q-57 0 -116.5 -17t-118.5 -54.5t-107.5 -90t-83 -129t-45.5 -166.5zM473 1571l180 -297h88l-120 297h-148z" />
<glyph unicode="&#xe1;" d="M57 537q16 130 76 236t143 170.5t174.5 99t178.5 34.5q131 0 235.5 -64.5t147.5 -185.5l28 238h103l-131 -1065h-103l29 236q-72 -123 -189.5 -186.5t-246.5 -63.5q-89 0 -173.5 35t-152 101t-101.5 174.5t-18 240.5zM160 528q-14 -111 13 -200t81.5 -142t121 -80.5 t136.5 -27.5q56 0 115.5 18t118 55.5t106.5 90.5t82 129.5t45 165.5q11 90 -4 165.5t-49.5 127t-83 87t-102 52t-109.5 16.5q-57 0 -116.5 -17t-118.5 -54.5t-107.5 -90t-83 -129t-45.5 -166.5zM649 1274h88l254 297h-147z" />
<glyph unicode="&#xe2;" d="M57 537q16 130 76 236t143 170.5t174.5 99t178.5 34.5q131 0 235.5 -64.5t147.5 -185.5l28 238h103l-131 -1065h-103l29 236q-72 -123 -189.5 -186.5t-246.5 -63.5q-89 0 -173.5 35t-152 101t-101.5 174.5t-18 240.5zM160 528q-14 -111 13 -200t81.5 -142t121 -80.5 t136.5 -27.5q56 0 115.5 18t118 55.5t106.5 90.5t82 129.5t45 165.5q11 90 -4 165.5t-49.5 127t-83 87t-102 52t-109.5 16.5q-57 0 -116.5 -17t-118.5 -54.5t-107.5 -90t-83 -129t-45.5 -166.5zM385 1274l260 297h166l186 -297h-88l-188 233l-248 -233h-88z" />
<glyph unicode="&#xe3;" d="M57 537q16 130 76 236t143 170.5t174.5 99t178.5 34.5q131 0 235.5 -64.5t147.5 -185.5l28 238h103l-131 -1065h-103l29 236q-72 -123 -189.5 -186.5t-246.5 -63.5q-89 0 -173.5 35t-152 101t-101.5 174.5t-18 240.5zM160 528q-14 -111 13 -200t81.5 -142t121 -80.5 t136.5 -27.5q56 0 115.5 18t118 55.5t106.5 90.5t82 129.5t45 165.5q11 90 -4 165.5t-49.5 127t-83 87t-102 52t-109.5 16.5q-57 0 -116.5 -17t-118.5 -54.5t-107.5 -90t-83 -129t-45.5 -166.5zM356 1290q11 87 72.5 136t130.5 49q45 0 83 -14t63 -34.5t47.5 -41t48.5 -34.5 t55 -14q61 0 97.5 31t39.5 68l62 -4q-11 -88 -69 -134.5t-132 -46.5q-44 0 -80 15t-60 36.5t-46.5 43t-51.5 36.5t-63 15q-62 0 -97.5 -36t-39.5 -75z" />
<glyph unicode="&#xe4;" d="M57 537q16 130 76 236t143 170.5t174.5 99t178.5 34.5q131 0 235.5 -64.5t147.5 -185.5l28 238h103l-131 -1065h-103l29 236q-72 -123 -189.5 -186.5t-246.5 -63.5q-89 0 -173.5 35t-152 101t-101.5 174.5t-18 240.5zM160 528q-14 -111 13 -200t81.5 -142t121 -80.5 t136.5 -27.5q56 0 115.5 18t118 55.5t106.5 90.5t82 129.5t45 165.5q11 90 -4 165.5t-49.5 127t-83 87t-102 52t-109.5 16.5q-57 0 -116.5 -17t-118.5 -54.5t-107.5 -90t-83 -129t-45.5 -166.5zM401 1307l17 127h127l-17 -127h-127zM864 1307l17 127h127l-17 -127h-127z" />
<glyph unicode="&#xe5;" d="M57 537q16 130 76 236t143 170.5t174.5 99t178.5 34.5q131 0 235.5 -64.5t147.5 -185.5l28 238h103l-131 -1065h-103l29 236q-72 -123 -189.5 -186.5t-246.5 -63.5q-89 0 -173.5 35t-152 101t-101.5 174.5t-18 240.5zM160 528q-14 -111 13 -200t81.5 -142t121 -80.5 t136.5 -27.5q56 0 115.5 18t118 55.5t106.5 90.5t82 129.5t45 165.5q11 90 -4 165.5t-49.5 127t-83 87t-102 52t-109.5 16.5q-57 0 -116.5 -17t-118.5 -54.5t-107.5 -90t-83 -129t-45.5 -166.5zM549 1438q8 65 60.5 111t121.5 46q67 0 110.5 -48.5t35.5 -116.5 q-7 -64 -60.5 -111t-118.5 -47q-71 0 -114 49t-35 117zM627 1434q-4 -36 17.5 -61t55.5 -25q36 0 65 26t34 60q4 36 -18 61t-56 25q-36 0 -64.5 -26t-33.5 -60z" />
<glyph unicode="&#xe6;" horiz-adv-x="2129" d="M57 537q16 130 76 236t143 170.5t174.5 99t178.5 34.5q131 0 235.5 -64.5t147.5 -185.5l28 238h103l-29 -225q87 115 211.5 176t245.5 61q71 0 139.5 -21.5t129.5 -66.5t104.5 -108.5t63.5 -155t7 -197.5q-3 -19 -10 -41h-911q-5 -81 13.5 -150t53.5 -116t82.5 -80 t99.5 -48t105 -15q202 0 344 145l78 -57q-85 -89 -196.5 -134.5t-229.5 -45.5q-122 0 -233.5 63t-170.5 180l-28 -229h-103l29 236q-72 -123 -189.5 -186.5t-246.5 -63.5q-89 0 -173.5 35t-152 101t-101.5 174.5t-18 240.5zM160 528q-14 -111 13 -200t81.5 -142t121 -80.5 t136.5 -27.5q56 0 115.5 18t118 55.5t106.5 90.5t82 129.5t45 165.5q11 90 -4 165.5t-49.5 127t-83 87t-102 52t-109.5 16.5q-57 0 -116.5 -17t-118.5 -54.5t-107.5 -90t-83 -129t-45.5 -166.5zM1106 578l813 4q8 98 -21 177.5t-82.5 127.5t-117.5 73t-131 25 q-68 0 -139.5 -25.5t-137 -74t-115.5 -128.5t-69 -179z" />
<glyph unicode="&#xe7;" horiz-adv-x="1116" d="M68 537q16 130 76.5 236t144 170.5t175 99t177.5 34.5q130 0 240.5 -67t162.5 -191l-96 -28q-41 95 -126 144.5t-185 49.5q-70 0 -144 -28.5t-142.5 -82.5t-118 -144.5t-62.5 -201.5q-11 -89 4.5 -165t50.5 -127.5t83.5 -88t102 -53t107.5 -16.5q102 0 201 51t164 147 l92 -36q-70 -110 -178.5 -173.5t-225.5 -76.5l-90 -84q68 -2 111.5 -49.5t34.5 -120.5q-7 -61 -54 -106t-115.5 -59.5t-148.5 1.5l23 49q85 -16 140 23t63 100q6 59 -34.5 85t-107.5 -7l-26 49l98 117q-66 8 -128 33.5t-116.5 72.5t-92.5 109t-55 148.5t-5 185.5z" />
<glyph unicode="&#xe8;" horiz-adv-x="1216" d="M78 537q16 130 76.5 236t143.5 170.5t175 99t180 34.5q71 0 139.5 -21.5t130 -66.5t105 -108.5t63.5 -155t7 -197.5q-2 -14 -11 -41h-911q-5 -81 13.5 -150t53.5 -116t82.5 -80t99.5 -48t105 -15q202 0 344 145l78 -57q-85 -89 -196.5 -134.5t-229.5 -45.5q-89 0 -174 35 t-153 101t-102.5 174.5t-18.5 240.5zM188 578l813 4q8 98 -21 177.5t-82.5 127.5t-117.5 73t-131 25q-68 0 -139.5 -25.5t-137 -74t-115.5 -128.5t-69 -179zM403 1571l181 -297h88l-121 297h-148z" />
<glyph unicode="&#xe9;" horiz-adv-x="1216" d="M78 537q16 130 76.5 236t143.5 170.5t175 99t180 34.5q71 0 139.5 -21.5t130 -66.5t105 -108.5t63.5 -155t7 -197.5q-2 -14 -11 -41h-911q-5 -81 13.5 -150t53.5 -116t82.5 -80t99.5 -48t105 -15q202 0 344 145l78 -57q-85 -89 -196.5 -134.5t-229.5 -45.5q-89 0 -174 35 t-153 101t-102.5 174.5t-18.5 240.5zM188 578l813 4q8 98 -21 177.5t-82.5 127.5t-117.5 73t-131 25q-68 0 -139.5 -25.5t-137 -74t-115.5 -128.5t-69 -179zM580 1274h88l254 297h-148z" />
<glyph unicode="&#xea;" horiz-adv-x="1216" d="M78 537q16 130 76.5 236t143.5 170.5t175 99t180 34.5q71 0 139.5 -21.5t130 -66.5t105 -108.5t63.5 -155t7 -197.5q-2 -14 -11 -41h-911q-5 -81 13.5 -150t53.5 -116t82.5 -80t99.5 -48t105 -15q202 0 344 145l78 -57q-85 -89 -196.5 -134.5t-229.5 -45.5q-89 0 -174 35 t-153 101t-102.5 174.5t-18.5 240.5zM188 578l813 4q8 98 -21 177.5t-82.5 127.5t-117.5 73t-131 25q-68 0 -139.5 -25.5t-137 -74t-115.5 -128.5t-69 -179zM315 1274l260 297h166l187 -297h-88l-189 233l-248 -233h-88z" />
<glyph unicode="&#xeb;" horiz-adv-x="1216" d="M78 537q16 130 76.5 236t143.5 170.5t175 99t180 34.5q71 0 139.5 -21.5t130 -66.5t105 -108.5t63.5 -155t7 -197.5q-2 -14 -11 -41h-911q-5 -81 13.5 -150t53.5 -116t82.5 -80t99.5 -48t105 -15q202 0 344 145l78 -57q-85 -89 -196.5 -134.5t-229.5 -45.5q-89 0 -174 35 t-153 101t-102.5 174.5t-18.5 240.5zM188 578l813 4q8 98 -21 177.5t-82.5 127.5t-117.5 73t-131 25q-68 0 -139.5 -25.5t-137 -74t-115.5 -128.5t-69 -179zM332 1307l16 127h127l-16 -127h-127zM795 1307l16 127h127l-16 -127h-127z" />
<glyph unicode="&#xec;" horiz-adv-x="409" d="M10 1571l180 -297h89l-121 297h-148zM66 0l131 1065h102l-131 -1065h-102z" />
<glyph unicode="&#xed;" horiz-adv-x="409" d="M66 0l131 1065h102l-131 -1065h-102zM186 1274h88l254 297h-147z" />
<glyph unicode="&#xee;" horiz-adv-x="409" d="M-78 1274l260 297h166l187 -297h-89l-188 233l-248 -233h-88zM66 0l131 1065h102l-131 -1065h-102z" />
<glyph unicode="&#xef;" horiz-adv-x="409" d="M-61 1307l16 127h127l-16 -127h-127zM66 0l131 1065h102l-131 -1065h-102zM401 1307l17 127h127l-17 -127h-127z" />
<glyph unicode="&#xf0;" horiz-adv-x="1216" d="M88 520q32 260 171.5 402.5t361.5 142.5q100 0 165.5 -24t114.5 -80l-143 227l-197 -29l10 90l136 19l-105 166h115l94 -150l201 29l-13 -90l-135 -21q112 -178 160 -339t25 -351q-21 -168 -100 -289.5t-195.5 -182t-257.5 -60.5q-203 0 -321 144t-87 396zM190 512 q-26 -214 64.5 -327t243.5 -113q172 0 296.5 114.5t151.5 333.5q29 232 -55 341.5t-275 109.5q-370 0 -426 -459z" />
<glyph unicode="&#xf1;" horiz-adv-x="1173" d="M51 0l131 1065h103l-131 -1065h-103zM231 631l21 162q9 36 42 81.5t85 92t131.5 77.5t167.5 31q65 0 123 -16t108.5 -51t84.5 -87t48 -129t2 -171l-75 -621h-103l78 627q21 178 -58 267t-222 89q-148 0 -271.5 -109t-161.5 -243zM272 1290q11 87 72.5 136t130.5 49 q45 0 83 -14t63 -34.5t47.5 -41t48.5 -34.5t55 -14q61 0 97.5 31t39.5 68l62 -4q-11 -88 -69 -134.5t-132 -46.5q-44 0 -80 15t-60 36.5t-46.5 43t-51.5 36.5t-63 15q-62 0 -97.5 -36t-39.5 -75z" />
<glyph unicode="&#xf2;" horiz-adv-x="1210" d="M68 537q16 130 76.5 236t143.5 170.5t175 99t180 34.5q71 0 140 -21.5t131 -66.5t106 -108.5t64.5 -155t7.5 -197.5t-55.5 -196.5t-101.5 -152.5t-131 -106.5t-145 -65.5t-143 -21q-89 0 -174 35t-153 101t-102.5 174.5t-18.5 240.5zM170 528q-11 -89 4.5 -165t50 -127.5 t83.5 -88t103 -53t109 -16.5q72 0 146 28.5t142 82.5t117.5 145t63.5 203q14 110 -12.5 198.5t-80.5 141.5t-120.5 80.5t-136.5 27.5q-72 0 -146.5 -28.5t-142.5 -82.5t-117.5 -144.5t-62.5 -201.5zM408 1571l180 -297h88l-121 297h-147z" />
<glyph unicode="&#xf3;" horiz-adv-x="1210" d="M68 537q16 130 76.5 236t143.5 170.5t175 99t180 34.5q71 0 140 -21.5t131 -66.5t106 -108.5t64.5 -155t7.5 -197.5t-55.5 -196.5t-101.5 -152.5t-131 -106.5t-145 -65.5t-143 -21q-89 0 -174 35t-153 101t-102.5 174.5t-18.5 240.5zM170 528q-11 -89 4.5 -165t50 -127.5 t83.5 -88t103 -53t109 -16.5q72 0 146 28.5t142 82.5t117.5 145t63.5 203q14 110 -12.5 198.5t-80.5 141.5t-120.5 80.5t-136.5 27.5q-72 0 -146.5 -28.5t-142.5 -82.5t-117.5 -144.5t-62.5 -201.5zM584 1274h88l254 297h-148z" />
<glyph unicode="&#xf4;" horiz-adv-x="1210" d="M68 537q16 130 76.5 236t143.5 170.5t175 99t180 34.5q71 0 140 -21.5t131 -66.5t106 -108.5t64.5 -155t7.5 -197.5t-55.5 -196.5t-101.5 -152.5t-131 -106.5t-145 -65.5t-143 -21q-89 0 -174 35t-153 101t-102.5 174.5t-18.5 240.5zM170 528q-11 -89 4.5 -165t50 -127.5 t83.5 -88t103 -53t109 -16.5q72 0 146 28.5t142 82.5t117.5 145t63.5 203q14 110 -12.5 198.5t-80.5 141.5t-120.5 80.5t-136.5 27.5q-72 0 -146.5 -28.5t-142.5 -82.5t-117.5 -144.5t-62.5 -201.5zM319 1274l261 297h165l187 -297h-88l-189 233l-247 -233h-89z" />
<glyph unicode="&#xf5;" horiz-adv-x="1210" d="M68 537q16 130 76.5 236t143.5 170.5t175 99t180 34.5q71 0 140 -21.5t131 -66.5t106 -108.5t64.5 -155t7.5 -197.5t-55.5 -196.5t-101.5 -152.5t-131 -106.5t-145 -65.5t-143 -21q-89 0 -174 35t-153 101t-102.5 174.5t-18.5 240.5zM170 528q-11 -89 4.5 -165t50 -127.5 t83.5 -88t103 -53t109 -16.5q72 0 146 28.5t142 82.5t117.5 145t63.5 203q14 110 -12.5 198.5t-80.5 141.5t-120.5 80.5t-136.5 27.5q-72 0 -146.5 -28.5t-142.5 -82.5t-117.5 -144.5t-62.5 -201.5zM291 1290q11 87 72.5 136t130.5 49q45 0 83 -14t63 -34.5t47.5 -41 t48.5 -34.5t55 -14q61 0 97.5 31t39.5 68l61 -4q-11 -88 -69 -134.5t-132 -46.5q-44 0 -80 15t-60 36.5t-46.5 43t-51.5 36.5t-63 15q-62 0 -97.5 -36t-39.5 -75z" />
<glyph unicode="&#xf6;" horiz-adv-x="1210" d="M68 537q16 130 76.5 236t143.5 170.5t175 99t180 34.5q71 0 140 -21.5t131 -66.5t106 -108.5t64.5 -155t7.5 -197.5t-55.5 -196.5t-101.5 -152.5t-131 -106.5t-145 -65.5t-143 -21q-89 0 -174 35t-153 101t-102.5 174.5t-18.5 240.5zM170 528q-11 -89 4.5 -165t50 -127.5 t83.5 -88t103 -53t109 -16.5q72 0 146 28.5t142 82.5t117.5 145t63.5 203q14 110 -12.5 198.5t-80.5 141.5t-120.5 80.5t-136.5 27.5q-72 0 -146.5 -28.5t-142.5 -82.5t-117.5 -144.5t-62.5 -201.5zM336 1307l16 127h127l-16 -127h-127zM799 1307l16 127h127l-16 -127h-127z " />
<glyph unicode="&#xf7;" horiz-adv-x="870" d="M70 537l10 81h686l-10 -81h-686zM309 217l17 131h127l-17 -131h-127zM381 803l16 131h127l-16 -131h-127z" />
<glyph unicode="&#xf8;" horiz-adv-x="1191" d="M68 537q16 130 76.5 236t143.5 170.5t175 99t180 34.5q65 0 127 -18l61 125h107l-78 -162q122 -63 188 -190t44 -304q-13 -106 -55.5 -196.5t-101.5 -152.5t-131 -106.5t-145 -65.5t-143 -21t-141 22l-53 -110h-107l72 149q-116 67 -178.5 191.5t-40.5 298.5zM170 528 q-18 -140 27.5 -239.5t130.5 -155.5l403 840q-47 12 -92 12q-72 0 -146.5 -28.5t-142.5 -82.5t-117.5 -144.5t-62.5 -201.5zM416 94q56 -16 104 -16q72 0 146 28.5t142 82.5t117.5 145t63.5 203q19 145 -29.5 246.5t-140.5 152.5z" />
<glyph unicode="&#xf9;" horiz-adv-x="1148" d="M68 434l77 631h107l-78 -637q-22 -181 45.5 -265.5t208.5 -84.5q74 0 145 31t126 82t97 113.5t66 129.5l-20 -160q-10 -29 -32.5 -64.5t-61.5 -75.5t-86.5 -72.5t-113.5 -54t-136 -21.5q-81 0 -147.5 25t-117 76.5t-72 140.5t-7.5 206zM360 1571l181 -297h88l-121 297 h-148zM809 0l131 1065h107l-132 -1065h-106z" />
<glyph unicode="&#xfa;" horiz-adv-x="1148" d="M68 434l77 631h107l-78 -637q-22 -181 45.5 -265.5t208.5 -84.5q74 0 145 31t126 82t97 113.5t66 129.5l-20 -160q-10 -29 -32.5 -64.5t-61.5 -75.5t-86.5 -72.5t-113.5 -54t-136 -21.5q-81 0 -147.5 25t-117 76.5t-72 140.5t-7.5 206zM537 1274h88l254 297h-148zM809 0 l131 1065h107l-132 -1065h-106z" />
<glyph unicode="&#xfb;" horiz-adv-x="1148" d="M68 434l77 631h107l-78 -637q-22 -181 45.5 -265.5t208.5 -84.5q74 0 145 31t126 82t97 113.5t66 129.5l-20 -160q-10 -29 -32.5 -64.5t-61.5 -75.5t-86.5 -72.5t-113.5 -54t-136 -21.5q-81 0 -147.5 25t-117 76.5t-72 140.5t-7.5 206zM272 1274l260 297h166l187 -297 h-88l-189 233l-248 -233h-88zM809 0l131 1065h107l-132 -1065h-106z" />
<glyph unicode="&#xfc;" horiz-adv-x="1148" d="M68 434l77 631h107l-78 -637q-22 -181 45.5 -265.5t208.5 -84.5q74 0 145 31t126 82t97 113.5t66 129.5l-20 -160q-10 -29 -32.5 -64.5t-61.5 -75.5t-86.5 -72.5t-113.5 -54t-136 -21.5q-81 0 -147.5 25t-117 76.5t-72 140.5t-7.5 206zM289 1307l16 127h127l-16 -127 h-127zM752 1307l16 127h127l-16 -127h-127zM809 0l131 1065h107l-132 -1065h-106z" />
<glyph unicode="&#xfd;" horiz-adv-x="1112" d="M113 1065h104l283 -909l479 909h104l-768 -1454h-102l223 424zM553 1274l195 297h147l-254 -297h-88z" />
<glyph unicode="&#xfe;" horiz-adv-x="1261" d="M35 -389l47 389l176 1434h104l-73 -598q70 116 184 177t238 64h2h2h2h2h2h2q70 0 138.5 -21.5t129.5 -66.5t105 -108.5t64 -155t7 -197.5t-55 -196.5t-100.5 -152.5t-129.5 -106.5t-143.5 -65.5t-142.5 -21q-131 0 -236 65t-147 189l-29 -240l-47 -389h-102zM246 528 q-13 -109 13.5 -197.5t79.5 -142t119 -82t136 -28.5q57 0 116 17.5t118 54.5t107.5 89.5t83.5 130t46 167.5q14 110 -13 198.5t-81.5 141.5t-121 80.5t-136.5 27.5q-57 0 -115.5 -17t-117 -53.5t-106.5 -89t-82.5 -129.5t-45.5 -168z" />
<glyph unicode="&#xff;" horiz-adv-x="1112" d="M113 1065h104l283 -909l479 909h104l-768 -1454h-102l223 424zM305 1307l17 127h127l-17 -127h-127zM768 1307l16 127h127l-16 -127h-127z" />
<glyph unicode="&#x152;" horiz-adv-x="2447" d="M78 721q19 156 97.5 294t189.5 231.5t244.5 147.5t264.5 54q198 0 360.5 -111t229.5 -297l49 394h879l-12 -95h-772l-70 -571h567l-12 -94h-567l-82 -674h-107l47 387q-113 -184 -299 -292.5t-383 -108.5q-106 0 -206 34t-182 100t-141 154.5t-84.5 204t-10.5 242.5z M186 713q-17 -136 20.5 -255.5t112.5 -200t176.5 -127t211.5 -46.5q118 0 234 47t210 129t159 202.5t81 258.5q17 137 -18 256t-107.5 200t-175.5 127t-220 46q-111 0 -225.5 -47t-210.5 -128.5t-164 -203t-84 -258.5zM1444 0l12 94h793l-13 -94h-792z" />
<glyph unicode="&#x153;" horiz-adv-x="2134" d="M68 537q16 130 76.5 236t143.5 170.5t175 99t180 34.5q90 0 174 -33t154 -105t102 -171q82 147 223 228t279 81q71 0 139.5 -21.5t129.5 -66.5t104.5 -108.5t63.5 -155t7 -197.5q-3 -19 -10 -41h-911q-5 -81 13.5 -150t53.5 -116t82.5 -80t99.5 -48t105 -15 q202 0 344 145l78 -57q-85 -89 -196.5 -134.5t-229.5 -45.5q-90 0 -174 33t-154 105t-102 171q-82 -147 -223 -228t-279 -81q-89 0 -174 35t-153 101t-102.5 174.5t-18.5 240.5zM170 528q-11 -89 4.5 -165t50 -127.5t83.5 -88t103 -53t109 -16.5q72 0 146 28.5t142 82.5 t117.5 145t63.5 203q14 110 -12.5 198.5t-80.5 141.5t-120.5 80.5t-136.5 27.5q-72 0 -146.5 -28.5t-142.5 -82.5t-117.5 -144.5t-62.5 -201.5zM1110 578l813 4q8 98 -21 177.5t-82.5 127.5t-117.5 73t-131 25q-68 0 -139.5 -25.5t-137 -74t-115.5 -128.5t-69 -179z" />
<glyph unicode="&#x178;" horiz-adv-x="1312" d="M154 1434h114l383 -648l547 648h115l-619 -732l-86 -702h-102l86 702zM424 1675l16 127h127l-16 -127h-127zM887 1675l16 127h127l-16 -127h-127z" />
<glyph unicode="&#x2c6;" horiz-adv-x="612" d="M68 1274l260 297h166l186 -297h-88l-189 233l-247 -233h-88z" />
<glyph unicode="&#x2dc;" horiz-adv-x="679" d="M70 1290q11 87 72 136t130 49q45 0 83 -14t63 -34.5t47.5 -41t48.5 -34.5t55 -14q61 0 98 31t40 68l61 -4q-11 -88 -69 -134.5t-132 -46.5q-44 0 -80 15t-60 36.5t-46.5 43t-51.5 36.5t-63 15q-62 0 -97.5 -36t-39.5 -75z" />
<glyph unicode="&#x2000;" horiz-adv-x="982" />
<glyph unicode="&#x2001;" horiz-adv-x="1964" />
<glyph unicode="&#x2002;" horiz-adv-x="982" />
<glyph unicode="&#x2003;" horiz-adv-x="1964" />
<glyph unicode="&#x2004;" horiz-adv-x="654" />
<glyph unicode="&#x2005;" horiz-adv-x="491" />
<glyph unicode="&#x2006;" horiz-adv-x="327" />
<glyph unicode="&#x2007;" horiz-adv-x="327" />
<glyph unicode="&#x2008;" horiz-adv-x="245" />
<glyph unicode="&#x2009;" horiz-adv-x="392" />
<glyph unicode="&#x200a;" horiz-adv-x="109" />
<glyph unicode="&#x2010;" horiz-adv-x="819" d="M70 537l10 81h635l-10 -81h-635z" />
<glyph unicode="&#x2011;" horiz-adv-x="819" d="M70 537l10 81h635l-10 -81h-635z" />
<glyph unicode="&#x2012;" horiz-adv-x="819" d="M70 537l10 81h635l-10 -81h-635z" />
<glyph unicode="&#x2013;" horiz-adv-x="1228" d="M70 537l10 81h1044l-10 -81h-1044z" />
<glyph unicode="&#x2014;" horiz-adv-x="1351" d="M70 537l10 81h1167l-10 -81h-1167z" />
<glyph unicode="&#x2018;" horiz-adv-x="448" d="M72 1116h141l143 318h-86z" />
<glyph unicode="&#x2019;" horiz-adv-x="407" d="M61 1116h86l199 318h-141z" />
<glyph unicode="&#x201a;" horiz-adv-x="468" d="M94 -276h86l199 317h-141z" />
<glyph unicode="&#x201c;" horiz-adv-x="718" d="M72 1116h141l143 318h-86zM342 1116h141l144 318h-86z" />
<glyph unicode="&#x201d;" horiz-adv-x="675" d="M61 1116h86l199 318h-141zM330 1116h86l198 318h-141z" />
<glyph unicode="&#x201e;" horiz-adv-x="708" d="M94 -276h86l199 317h-141zM334 -276h86l198 317h-141z" />
<glyph unicode="&#x2022;" horiz-adv-x="401" d="M61 469l27 217h217l-26 -217h-218z" />
<glyph unicode="&#x2026;" horiz-adv-x="1331" d="M-80 0l17 131h126l-16 -131h-127zM426 0l16 131h127l-16 -131h-127zM932 0l16 131h127l-16 -131h-127z" />
<glyph unicode="&#x202f;" horiz-adv-x="392" />
<glyph unicode="&#x2039;" horiz-adv-x="440" d="M41 549l20 166l324 223l-10 -88l-260 -217l207 -219l-11 -88z" />
<glyph unicode="&#x203a;" horiz-adv-x="440" d="M55 326l11 88l260 219l-207 217l10 88l270 -223l-20 -166z" />
<glyph unicode="&#x205f;" horiz-adv-x="491" />
<glyph unicode="&#x20ac;" horiz-adv-x="1423" d="M41 553l10 82h107q0 43 6 86l8 51h-104l10 82h115q53 173 176.5 310.5t279 210.5t312.5 73q257 0 434 -180l-72 -70q-65 74 -161.5 113t-205.5 39q-198 0 -387 -139.5t-264 -356.5h322l-11 -82h-333q-10 -51 -11 -59q-4 -27 -4 -78h332l-10 -82h-318q29 -207 179.5 -338 t341.5 -131q110 0 216 40.5t191 115.5l62 -78q-103 -85 -225.5 -130.5t-248.5 -45.5q-154 0 -289.5 69.5t-227 200.5t-109.5 297h-121z" />
<glyph unicode="&#x2122;" horiz-adv-x="1120" d="M213 1372l8 62h350l-8 -62h-141l-37 -307h-68l37 307h-141zM598 1065l45 369h23l157 -269l228 269h24l-45 -369h-67l24 203l-166 -203h-14l-117 203l-24 -203h-68z" />
<glyph unicode="&#x25fc;" horiz-adv-x="1064" d="M0 0v1065h1065v-1065h-1065z" />
</font>
</defs>
</svg>
